<svg width="20" height="20" viewBox="0 0 20 20" fill="none" xmlns="http://www.w3.org/2000/svg">
<path d="M11.6667 9.99984H6.66667C6.44565 9.99984 6.23369 10.0876 6.07741 10.2439C5.92113 10.4002 5.83333 10.6122 5.83333 10.8332C5.83333 11.0542 5.92113 11.2661 6.07741 11.4224C6.23369 11.5787 6.44565 11.6665 6.66667 11.6665H11.6667C11.8877 11.6665 12.0996 11.5787 12.2559 11.4224C12.4122 11.2661 12.5 11.0542 12.5 10.8332C12.5 10.6122 12.4122 10.4002 12.2559 10.2439C12.0996 10.0876 11.8877 9.99984 11.6667 9.99984ZM16.175 15.8332L17.2583 14.7582C17.4153 14.6013 17.5034 14.3884 17.5034 14.1665C17.5034 13.9446 17.4153 13.7318 17.2583 13.5748C17.1014 13.4179 16.8886 13.3298 16.6667 13.3298C16.4447 13.3298 16.2319 13.4179 16.075 13.5748L15 14.6582L13.925 13.5748C13.7681 13.4179 13.5553 13.3298 13.3333 13.3298C13.1114 13.3298 12.8986 13.4179 12.7417 13.5748C12.5847 13.7318 12.4966 13.9446 12.4966 14.1665C12.4966 14.3884 12.5847 14.6013 12.7417 14.7582L13.825 15.8332L12.7417 16.9082C12.6636 16.9856 12.6016 17.0778 12.5593 17.1794C12.5169 17.2809 12.4952 17.3898 12.4952 17.4998C12.4952 17.6098 12.5169 17.7188 12.5593 17.8203C12.6016 17.9219 12.6636 18.014 12.7417 18.0915C12.8191 18.1696 12.9113 18.2316 13.0129 18.2739C13.1144 18.3162 13.2233 18.338 13.3333 18.338C13.4433 18.338 13.5523 18.3162 13.6538 18.2739C13.7554 18.2316 13.8475 18.1696 13.925 18.0915L15 17.0082L16.075 18.0915C16.1525 18.1696 16.2446 18.2316 16.3462 18.2739C16.4477 18.3162 16.5567 18.338 16.6667 18.338C16.7767 18.338 16.8856 18.3162 16.9871 18.2739C17.0887 18.2316 17.1809 18.1696 17.2583 18.0915C17.3364 18.014 17.3984 17.9219 17.4407 17.8203C17.4831 17.7188 17.5048 17.6098 17.5048 17.4998C17.5048 17.3898 17.4831 17.2809 17.4407 17.1794C17.3984 17.0778 17.3364 16.9856 17.2583 16.9082L16.175 15.8332ZM10 16.6665H5C4.77899 16.6665 4.56702 16.5787 4.41074 16.4224C4.25446 16.2661 4.16667 16.0542 4.16667 15.8332V4.1665C4.16667 3.94549 4.25446 3.73353 4.41074 3.57725C4.56702 3.42097 4.77899 3.33317 5 3.33317H9.16667V5.83317C9.16667 6.49621 9.43006 7.1321 9.8989 7.60094C10.3677 8.06978 11.0036 8.33317 11.6667 8.33317H14.1667V10.8332C14.1667 11.0542 14.2545 11.2661 14.4107 11.4224C14.567 11.5787 14.779 11.6665 15 11.6665C15.221 11.6665 15.433 11.5787 15.5893 11.4224C15.7455 11.2661 15.8333 11.0542 15.8333 10.8332V7.49984C15.8333 7.49984 15.8333 7.49984 15.8333 7.44984C15.8247 7.37328 15.8079 7.29786 15.7833 7.22484V7.14984C15.7433 7.06415 15.6898 6.98539 15.625 6.9165L10.625 1.9165C10.5561 1.85168 10.4774 1.79824 10.3917 1.75817C10.3641 1.75335 10.3359 1.75335 10.3083 1.75817C10.2273 1.71484 10.1402 1.68394 10.05 1.6665H5C4.33696 1.6665 3.70107 1.9299 3.23223 2.39874C2.76339 2.86758 2.5 3.50346 2.5 4.1665V15.8332C2.5 16.4962 2.76339 17.1321 3.23223 17.6009C3.70107 18.0698 4.33696 18.3332 5 18.3332H10C10.221 18.3332 10.433 18.2454 10.5893 18.0891C10.7455 17.9328 10.8333 17.7209 10.8333 17.4998C10.8333 17.2788 10.7455 17.0669 10.5893 16.9106C10.433 16.7543 10.221 16.6665 10 16.6665ZM10.8333 4.50817L12.9917 6.6665H11.6667C11.4457 6.6665 11.2337 6.57871 11.0774 6.42243C10.9211 6.26615 10.8333 6.05418 10.8333 5.83317V4.50817ZM6.66667 6.6665C6.44565 6.6665 6.23369 6.7543 6.07741 6.91058C5.92113 7.06686 5.83333 7.27882 5.83333 7.49984C5.83333 7.72085 5.92113 7.93281 6.07741 8.08909C6.23369 8.24537 6.44565 8.33317 6.66667 8.33317H7.5C7.72101 8.33317 7.93297 8.24537 8.08926 8.08909C8.24554 7.93281 8.33333 7.72085 8.33333 7.49984C8.33333 7.27882 8.24554 7.06686 8.08926 6.91058C7.93297 6.7543 7.72101 6.6665 7.5 6.6665H6.66667ZM10 13.3332H6.66667C6.44565 13.3332 6.23369 13.421 6.07741 13.5772C5.92113 13.7335 5.83333 13.9455 5.83333 14.1665C5.83333 14.3875 5.92113 14.5995 6.07741 14.7558C6.23369 14.912 6.44565 14.9998 6.66667 14.9998H10C10.221 14.9998 10.433 14.912 10.5893 14.7558C10.7455 14.5995 10.8333 14.3875 10.8333 14.1665C10.8333 13.9455 10.7455 13.7335 10.5893 13.5772C10.433 13.421 10.221 13.3332 10 13.3332Z" fill="#231F23"/>
</svg>
